<?xml version="1.0" encoding="UTF-8"?>
<!DOCTYPE svg PUBLIC "-//W3C//DTD SVG 1.1//EN"
  "http://www.w3.org/Graphics/SVG/1.1/DTD/svg11.dtd">
<!-- Created with Inkpad (http://www.taptrix.com/) --><svg xmlns:inkpad="http://taptrix.com/inkpad/svg_extensions" height="378pt" xmlns:xlink="http://www.w3.org/1999/xlink" xmlns="http://www.w3.org/2000/svg" width="350pt" version="1.1" viewBox="0,0,350,378">
<defs/>
<g id="Untitled" inkpad:layerName="Untitled">
<path d="M176+148.895C255.023+148.895+319.091+131.947+319.158+111.033L319.158+313.105C319.158+334.034+255.064+351+176+351L176+284.961L176.568+284.979L186.358+295.536C189.501+298.814+192.733+301.667+196.053+304.095C199.372+306.523+202.842+308.435+206.463+309.832C210.084+311.228+214.049+311.926+218.358+311.926L227.432+311.348L233.263+310.2L233.263+292.768L231.095+293.453L228.632+293.979L226.094+294.305L223.789+294.411L216.621+293.863L210.2+291.895L203.989+288.021L197.474+281.758C206.611+278.488+213.733+272.853+218.842+264.853C223.965+256.768+226.526+247.112+226.526+235.884C226.526+221.512+222.337+209.954+213.958+201.211C205.621+192.383+194.723+187.968+181.263+187.968L176+188.181L176+148.895ZM293.895+68.8947L319.158+68.8947L319.158+85.7368C319.158+106.666+255.064+123.632+176+123.632L176+81.5263C241.112+81.5263+293.895+75.8716+293.895+68.8947ZM180.526+206.832C187.768+206.832+193.432+209.52+197.516+214.895C201.586+220.186+203.621+227.547+203.621+236.979C203.621+246.074+201.495+253.225+197.242+258.432C193.046+263.554+187.299+266.116+180+266.116L176+265.81L176+207.211L180.526+206.832ZM297.937+283.632L297.937+266.116L262.905+266.116L262.905+189.316L241.347+189.316L241.347+283.632L297.937+283.632Z" fill-opacity="0.701961" fill="#000000" opacity="1"/>
<path d="M176+351C96.9356+351+32.8421+334.034+32.8421+313.105L32.8421+111C32.8421+131.929+96.9364+148.895+176+148.895L176+187.999C163.881+188.97+154.001+193.493+146.358+201.568C137.712+210.704+133.389+222.719+133.389+237.61C133.389+244.123+134.413+250.22+136.463+255.904C138.512+261.589+141.414+266.54+145.168+270.757C148.923+274.975+153.445+278.329+158.737+280.821C163.919+283.26+169.673+284.587+176+284.798L176+351ZM319.158+68.8947L293.895+68.8947C293.895+61.9187+241.112+56.2632+176+56.2632C110.888+56.2632+58.1053+61.9187+58.1053+68.8947C58.1053+75.8716+110.888+81.5263+176+81.5263L176+123.632C96.9356+123.632+32.8421+106.666+32.8421+85.7368L32.8421+68.8947C32.8421+47.9667+96.9364+31+176+31C255.023+31+319.091+47.949+319.158+68.8947ZM59.2842+279.694C62.7225+281.392+66.7891+282.67+71.4838+283.525C76.1785+284.382+81.1293+284.81+86.3368+284.81C91.4029+284.81+96.2173+284.33+100.779+283.368C105.34+282.406+109.34+280.824+112.779+278.62C116.217+276.417+118.94+273.54+120.947+269.989C122.954+266.438+123.958+262.045+123.958+256.81C123.958+253.02+123.396+249.698+122.274+246.842C121.15+243.985+119.529+241.445+117.411+239.221C115.291+236.996+112.75+234.999+109.789+233.231L99.7684+228.22L92.4421+224.926L86.9263+221.652L83.4206+218.126C82.5996+216.884+82.1895+215.477+82.1895+213.904C82.1895+212.403+82.5575+211.045+83.2943+209.831L86.4101+206.704L91.3474+204.683L97.8316+203.968L103.326+204.368L109.137+205.61L114.821+207.736L119.916+210.704L119.916+191.357C116.716+190.15+113.217+189.256+109.421+188.673L96.3579+187.799C91.3474+187.799+86.6029+188.333+82.1263+189.399C77.6488+190.466+73.7086+192.136+70.3048+194.41C66.9011+196.683+64.2139+199.575+62.2417+203.083C60.2695+206.592+59.2842+210.789+59.2842+215.673C59.2842+221.904+61.0661+227.224+64.6316+231.631C68.1962+236.038+73.6135+239.765+80.8842+242.81L88.8522+246.283L95.2421+249.82L99.4947+253.81C100.533+255.248+101.053+256.88+101.053+258.704L100.073+262.641C99.4206+263.849+98.4278+264.898+97.0947+265.789L92.1154+267.883L85.1368+268.641C80.603+268.641+76.112+267.856+71.6632+266.283C67.2135+264.712+63.0872+262.354+59.2842+259.21L59.2842+279.694ZM162.8+214.852C166.273+210.522+170.673+207.909+176+207.013L176+265.667C170.68+264.86+166.259+262.308+162.737+258.01C158.442+252.677+156.295+245.483+156.295+236.431C156.295+227.462+158.463+220.27+162.8+214.852Z" opacity="1" fill="#000000"/>
</g>
</svg>
